<?xml version="1.0" encoding="utf-8"?>
<!-- Generator: Adobe Illustrator 24.1.0, SVG Export Plug-In . SVG Version: 6.00 Build 0)  -->
<svg version="1.1" id="Ebene_1" xmlns="http://www.w3.org/2000/svg" xmlns:xlink="http://www.w3.org/1999/xlink" x="0px" y="0px"
	 viewBox="0 0 20 20" style="enable-background:new 0 0 20 20;" xml:space="preserve">
<path d="M0.5,2.5h1v1h-1V2.5z M3.5,2.5h-1v1h1V2.5z M4.5,3.5h1v-1h-1V3.5z M6.5,3.5h1v-1h-1V3.5z M8.5,3.5h1v-1h-1V3.5z M11.5,2.5
	h-1v1h1V2.5z M12.5,3.5h1v-1h-1V3.5z M15.5,2.5h-1v1h1V2.5z M16.5,3.5h1v-1h-1V3.5z M18.5,2.5v1h1v-1H18.5z M18.5,5.5h1v-1h-1V5.5z
	 M18.5,7.5h1v-1h-1V7.5z M18.5,9.5h1v-1h-1V9.5z M18.5,11.5h1v-1h-1V11.5z M18.5,13.5h1v-1h-1V13.5z M18.5,15.5h1v-1h-1V15.5z
	 M18.5,17.5h1v-1h-1V17.5z M16.5,17.5h1v-1h-1V17.5z M14.5,17.5h1v-1h-1V17.5z M12.5,17.5h1v-1h-1V17.5z M10.5,17.5h1v-1h-1V17.5z
	 M8.5,17.5h1v-1h-1V17.5z M6.5,17.5h1v-1h-1V17.5z M4.5,17.5h1v-1h-1V17.5z M2.5,17.5h1v-1h-1V17.5z M0.5,17.5h1v-1h-1V17.5z
	 M0.5,15.5h1v-1h-1V15.5z M0.5,13.5h1v-1h-1V13.5z M0.5,11.5h1v-1h-1V11.5z M0.5,9.5h1v-1h-1V9.5z M0.5,7.5h1v-1h-1V7.5z M0.5,5.5h1
	v-1h-1V5.5z M5.5,7.2C5.5,8,4,10.7,4,10.7S2.5,8,2.5,7.2S3.2,5.7,4,5.7S5.5,6.4,5.5,7.2z M5,7.2c0-0.6-0.4-1-1-1c-0.6,0-1,0.4-1,1
	s0.4,1,1,1C4.6,8.2,5,7.7,5,7.2z M17.5,5.2C17.5,6,16,8.7,16,8.7S14.5,6,14.5,5.2s0.7-1.5,1.5-1.5S17.5,4.4,17.5,5.2z M17,5.2
	c0-0.6-0.4-1-1-1c-0.6,0-1,0.4-1,1s0.4,1,1,1C16.6,6.2,17,5.7,17,5.2z M13.5,12.2c0,0.8-1.5,3.5-1.5,3.5s-1.5-2.7-1.5-3.5
	s0.7-1.5,1.5-1.5S13.5,11.4,13.5,12.2z M13,12.2c0-0.6-0.4-1-1-1c-0.6,0-1,0.4-1,1s0.4,1,1,1C12.6,13.2,13,12.7,13,12.2z"/>
</svg>
